<svg width="20" height="18" viewBox="0 0 20 18" fill="none" xmlns="http://www.w3.org/2000/svg">
<path d="M4.47266 0.0625C4.14844 0.230469 4.06641 0.421875 4.0625 1V1.43359L3.33203 1.45703C2.5 1.48047 2.28906 1.52344 1.8125 1.75781C1.20312 2.05469 0.703125 2.63672 0.484375 3.30469L0.371094 3.65234V10.7617V15.8711L0.492188 16.207C0.796875 17.0625 1.48828 17.707 2.32812 17.9219C2.625 18 2.77344 18 10 18C17.2266 18 17.375 18 17.6719 17.9219C18.5117 17.707 19.2031 17.0625 19.5078 16.207L19.6289 15.8711V10.7617V3.65234L19.5156 3.30469C19.2969 2.63672 18.7969 2.05469 18.1875 1.75781C17.7109 1.52344 17.5 1.48047 16.6719 1.45703L15.9375 1.43359V1C15.9375 0.492188 15.875 0.308594 15.6445 0.132812C15.5273 0.046875 15.4492 0.0195312 15.25 0.0078125C14.9453 -0.0117188 14.8125 0.0390625 14.6328 0.234375C14.457 0.429688 14.4141 0.597656 14.4141 1.0625V1.44531H10H5.58594V1.0625C5.58594 0.855469 5.56641 0.617188 5.54297 0.535156C5.49609 0.367188 5.3125 0.140625 5.15234 0.0546875C5.00781 -0.0195312 4.62109 -0.015625 4.47266 0.0625ZM4.0625 3.42578C4.0625 3.96875 4.12891 4.16016 4.38672 4.32812C4.52344 4.41797 4.58594 4.43359 4.82812 4.43359C5.08594 4.43359 5.125 4.42188 5.26172 4.3125C5.52344 4.09766 5.56641 3.98828 5.58203 3.44531L5.59375 2.96875H10H14.4062L14.418 3.44531C14.4336 3.98828 14.4766 4.09766 14.7383 4.3125C14.875 4.42188 14.9141 4.43359 15.1719 4.43359C15.4141 4.43359 15.4766 4.41797 15.6133 4.32812C15.8711 4.16016 15.9375 3.96875 15.9375 3.42578V2.96875H16.4766C17.2812 2.96875 17.6484 3.09766 17.9023 3.46484C18.1133 3.76953 18.125 3.85547 18.125 5.12109V6.28906H10H1.875V5.12109C1.875 3.85547 1.88672 3.76953 2.09766 3.46484C2.35547 3.09375 2.69922 2.97656 3.50781 2.97266L4.0625 2.96875V3.42578ZM18.125 12.6758C18.125 17.4766 18.125 15.5391 18.0469 15.75C17.9453 16.0195 17.7148 16.2578 17.4297 16.3906L17.207 16.4961H10H2.79297L2.57031 16.3906C2.28516 16.2578 2.05469 16.0195 1.95312 15.75C1.875 15.5391 1.875 17.4766 1.875 12.6758V7.8125H10H18.125V12.6758Z" fill="white"/>
</svg>
